<svg version="1.1" xmlns="http://www.w3.org/2000/svg" xmlns:xlink="http://www.w3.org/1999/xlink" width="88.75" height="88.75" viewBox="0,0,88.75,88.75"><g transform="translate(-195.875,-135.625)"><g data-paper-data="{&quot;isPaintingLayer&quot;:true}" fill-rule="nonzero" stroke="none" stroke-width="0" stroke-linecap="butt" stroke-linejoin="miter" stroke-miterlimit="10" stroke-dasharray="" stroke-dashoffset="0" style="mix-blend-mode: normal"><path d="M195.875,180c0,-24.50763 19.86737,-44.375 44.375,-44.375c24.50763,0 44.375,19.86737 44.375,44.375c0,24.50763 -19.86737,44.375 -44.375,44.375c-24.50763,0 -44.375,-19.86737 -44.375,-44.375z" fill="none"/><path d="M234.21497,213.88805c0,0 14.72011,-9.36563 19.39437,-18.73739c4.49814,-9.01864 1.20349,-18.50001 1.20349,-18.50001c0,0 17.33334,12.73824 11.49919,23.73624c-5.83415,10.998 -32.09705,13.50116 -32.09705,13.50116z" data-paper-data="{&quot;index&quot;:null}" fill="#8da4ff"/><path d="M245.78503,146.11195c0,0 -14.72011,9.36563 -19.39437,18.73739c-4.49814,9.01864 -1.20349,18.50001 -1.20349,18.50001c0,0 -17.33334,-12.73824 -11.49919,-23.73624c5.83415,-10.998 32.09705,-13.50116 32.09705,-13.50116z" data-paper-data="{&quot;index&quot;:null}" fill="#8da4ff"/><path d="M232.9127,180.00001l7.0873,-12.1014l7.0873,12.1014l-7.0873,12.1014z" fill="#8da4ff"/><path d="M267.625,161.5v0z" fill="none"/></g></g></svg>